# Blender 4.3.2
# www.blender.org
mtllib grass-stalk.mtl
o Plane
v -0.060289 -0.000477 0.000000
v 0.065903 -0.000477 0.000000
v -0.055570 0.216852 0.000000
v -0.055570 0.216852 0.000000
v 0.061185 0.216852 0.000000
v 0.061185 0.216852 0.000000
v -0.050858 0.421288 0.000000
v 0.054760 0.421288 0.000000
v 0.054760 0.421288 0.000000
v -0.044602 0.620557 0.000000
v 0.046792 0.620557 0.000000
v -0.029974 0.817156 0.000000
v 0.028739 0.817156 0.000000
v -0.001473 1.039178 0.000000
vn 0.7730 -0.0000 0.6344
vn -0.7730 -0.0000 0.6344
vn -0.7730 -0.0001 0.6344
vn 0.6344 -0.0000 0.7730
vn -0.6344 -0.0000 0.7730
vn 0.4714 -0.0000 0.8819
vn -0.4714 -0.0000 0.8819
vn -0.0980 -0.0000 0.9952
vn 0.7730 0.0001 0.6344
vt 0.110688 0.405684
vt 0.009105 0.405684
vt 0.004573 0.209059
vt 0.116867 0.209059
vt 0.103024 0.597339
vt 0.015121 0.597339
vt 0.085661 0.786426
vt 0.029191 0.786426
vt 0.056603 0.999965
vt 0.000035 0.000035
vt 0.121405 0.000035
s 1
f 8/1/1 7/2/2 4/3/3 5/4/1
f 11/5/4 10/6/5 7/2/2 9/1/1
f 13/7/6 12/8/7 10/6/5 11/5/4
f 12/8/7 13/7/6 14/9/8
f 6/4/1 3/3/2 1/10/2 2/11/9
